<svg xmlns="http://www.w3.org/2000/svg" width="32" height="32" viewBox="0 0 32 32" fill="none">
  <rect width="32" height="32" rx="16" fill="#2563EB"/>
  <path d="M16 10C17.1046 10 18 9.10457 18 8C18 6.89543 17.1046 6 16 6C14.8954 6 14 6.89543 14 8C14 9.10457 14.8954 10 16 10Z" fill="white"/>
  <path d="M20 12H12C11.4477 12 11 12.4477 11 13C11 13.5523 11.4477 14 12 14H15V22C15 22.5523 15.4477 23 16 23C16.5523 23 17 22.5523 17 22V14H20C20.5523 14 21 13.5523 21 13C21 12.4477 20.5523 12 20 12Z" fill="white"/>
  <path d="M24 26H8C7.44772 26 7 25.5523 7 25C7 24.4477 7.44772 24 8 24H24C24.5523 24 25 24.4477 25 25C25 25.5523 24.5523 26 24 26Z" fill="white"/>
</svg> 